<?xml version="1.0" encoding="UTF-8" standalone="no"?>
<!-- Created with Inkscape (http://www.inkscape.org/) -->

<svg
   width="64.051033mm"
   height="64.052086mm"
   viewBox="0 0 242.08265 242.08663"
   version="1.1"
   id="svg1"
   inkscape:export-filename="bitmap.svg"
   inkscape:export-xdpi="96"
   inkscape:export-ydpi="96"
   xmlns:inkscape="http://www.inkscape.org/namespaces/inkscape"
   xmlns:sodipodi="http://sodipodi.sourceforge.net/DTD/sodipodi-0.dtd"
   xmlns="http://www.w3.org/2000/svg"
   xmlns:svg="http://www.w3.org/2000/svg">
  <sodipodi:namedview
     id="namedview1"
     pagecolor="#505050"
     bordercolor="#ffffff"
     borderopacity="1"
     inkscape:showpageshadow="0"
     inkscape:pageopacity="0"
     inkscape:pagecheckerboard="0"
     inkscape:deskcolor="#d1d1d1"
     inkscape:document-units="mm" />
  <defs
     id="defs1">
    <linearGradient
       x1="0"
       y1="0"
       x2="1"
       y2="0"
       gradientUnits="userSpaceOnUse"
       gradientTransform="matrix(1889.91,1694.92,1694.92,-1889.91,8415.51,1950.4)"
       spreadMethod="pad"
       id="linearGradient557">
      <stop
         style="stop-opacity:1;stop-color:#edc5ca"
         offset="0"
         id="stop543" />
      <stop
         style="stop-opacity:1;stop-color:#fff0eb"
         offset="0.12776488"
         id="stop544" />
      <stop
         style="stop-opacity:1;stop-color:#fff0eb"
         offset="0.139785"
         id="stop545" />
      <stop
         style="stop-opacity:1;stop-color:#fff0eb"
         offset="0.14070626"
         id="stop546" />
      <stop
         style="stop-opacity:1;stop-color:#fed1c5"
         offset="0.258064"
         id="stop547" />
      <stop
         style="stop-opacity:1;stop-color:#fed1c5"
         offset="0.25885964"
         id="stop548" />
      <stop
         style="stop-opacity:1;stop-color:#fff0eb"
         offset="0.360215"
         id="stop549" />
      <stop
         style="stop-opacity:1;stop-color:#edd5d5"
         offset="0.48921346"
         id="stop550" />
      <stop
         style="stop-opacity:1;stop-color:#edd5d5"
         offset="0.489247"
         id="stop551" />
      <stop
         style="stop-opacity:1;stop-color:#fedfd3"
         offset="0.70055056"
         id="stop552" />
      <stop
         style="stop-opacity:1;stop-color:#fedfd3"
         offset="0.72043"
         id="stop553" />
      <stop
         style="stop-opacity:1;stop-color:#fedfd3"
         offset="0.72135127"
         id="stop554" />
      <stop
         style="stop-opacity:1;stop-color:#fff0eb"
         offset="0.83871"
         id="stop555" />
      <stop
         style="stop-opacity:1;stop-color:#edced5"
         offset="0.99995808"
         id="stop556" />
      <stop
         style="stop-opacity:1;stop-color:#edced5"
         offset="1"
         id="stop557" />
    </linearGradient>
    <clipPath
       clipPathUnits="userSpaceOnUse"
       id="clipPath557">
      <path
         d="m 9701.48,2019.65 c 9.98,113.27 59.47,219.62 140.34,300.49 91.81,91.81 213.88,142.37 343.68,142.37 16.8,0 33.9,-0.96 51,-2.74 -111,-210.2 -303.41,-370.99 -535.02,-440.12 z m -456.77,-14.1 c 9.28,12.46 18.88,24.57 28.66,35.94 13.87,16.11 28.86,31.89 44.58,46.88 89.55,85.46 200.57,143.54 321.16,168.03 6.56,-37.81 9.89,-76.45 9.89,-114.91 0,-46.82 -5.06,-93.57 -14.92,-139.1 -60.48,-12.99 -123.18,-19.89 -187.47,-19.89 -69.41,0 -137,8 -201.9,23.05 z m -662.01,644.79 c 58.26,47.2 123.57,83.83 194.34,108.73 51.22,-31.56 98.97,-69.34 141.93,-112.31 71.24,-71.24 127.17,-154.2 166.24,-246.55 4.66,-11.04 9.2,-22.52 13.47,-34.11 11.93,-32.35 21.73,-65.78 29.17,-99.35 12.14,-54.83 18.3,-111.5 18.3,-168.43 0,-3.49 -0.03,-6.96 -0.08,-10.44 l -0.03,-1.87 c -0.04,-2.96 -0.1,-5.9 -0.18,-8.87 l -0.04,-1.07 c -0.35,-12.58 -1.37,-25.88 -3,-40.29 -274,99.48 -485.91,329.52 -560.12,614.56 z m 498.9,1039.27 c -2.76,-10.88 -5.27,-21.59 -7.33,-31.69 l -1.54,-5.28 c -0.79,-2.74 -1.15,-5.58 -1.03,-7.94 -7.9,-42.63 -11.91,-86.41 -11.91,-130.1 0,-41.4 3.64,-82.98 10.79,-123.65 -51.7,-5.95 -104.97,-5.79 -156.4,0.49 -10.8,1.31 -21.68,2.91 -32.36,4.77 -44.52,7.71 -88.56,20.29 -131,37.33 88.01,109.43 201.22,197.78 330.78,256.07 z m 502.65,67.48 c -26.7,-55.39 -61,-106.67 -102.03,-152.44 -28.94,41.32 -128.8,152.6 -302.71,37.38 l -1.95,-1.3 1.29,-1.96 c 1.03,-1.58 101.34,-151.36 230.71,-103.75 -48.5,-39.88 -102.36,-72.48 -160.35,-97 -39.89,-16.87 -81.53,-29.78 -123.79,-38.36 -4.58,25.88 -7.5,52.16 -8.96,78.5 v 73.6 c 1.75,31.35 5.64,62.49 11.76,92.88 4.62,15.86 9.47,32 14.19,47.7 2.45,8.15 4.9,16.35 7.36,24.56 92.91,32.86 192.81,50.81 296.84,50.81 46.8,0 92.77,-3.64 137.64,-10.62 z m 139.51,-33.48 c 83.43,-27.32 161.47,-66.62 232.11,-115.87 -24.96,-0.79 -49.95,-2.4 -74.37,-5.03 -29.55,-3.19 -59.26,-7.78 -88.34,-13.67 l -3.05,4.19 c -1.38,1.9 -2.72,3.82 -4.07,5.75 l -1.62,2.33 c -1.31,1.9 -2.59,3.82 -3.87,5.72 l -1.63,2.45 c -1.25,1.91 -2.49,3.83 -3.72,5.75 l -1.62,2.54 c -1.2,1.91 -2.38,3.81 -3.55,5.74 l -1.6,2.64 c -1.15,1.9 -2.28,3.81 -3.4,5.74 l -1.58,2.73 c -1.11,1.91 -2.18,3.82 -3.24,5.74 l -6.21,11.5 c -0.98,1.9 -1.95,3.79 -2.92,5.7 l -1.52,3.07 c -0.94,1.87 -1.86,3.77 -2.77,5.67 l -1.51,3.17 c -0.89,1.88 -1.75,3.76 -2.6,5.65 l -1.48,3.28 c -0.83,1.87 -1.66,3.74 -2.47,5.62 l -1.44,3.38 c -0.78,1.87 -1.56,3.74 -2.32,5.61 l -1.4,3.48 c -0.73,1.87 -1.46,3.73 -2.17,5.6 l -1.35,3.57 c -0.69,1.86 -1.38,3.7 -2.05,5.57 l -1.31,3.68 c -0.64,1.84 -1.28,3.68 -1.9,5.52 z m -63.11,18.1 0.46,-1.82 c 0.5,-1.94 1.02,-3.88 1.54,-5.81 l 1.15,-4.2 c 0.55,-1.98 1.11,-3.97 1.69,-5.95 l 1.17,-3.96 c 0.62,-2.03 1.23,-4.07 1.87,-6.11 l 1.17,-3.69 c 0.68,-2.1 1.35,-4.21 2.06,-6.31 l 1.12,-3.3 c 0.76,-2.22 1.51,-4.42 2.31,-6.64 l 1.01,-2.77 c 0.85,-2.36 1.71,-4.72 2.6,-7.07 l 0.77,-2.01 c 1,-2.6 2,-5.19 3.25,-8.31 7.52,-18.67 16.19,-37.13 25.93,-55.14 1.46,-2.7 2.96,-5.39 4.71,-8.49 l 0.35,-0.63 c 1.43,-2.53 2.9,-5.05 4.37,-7.54 l 0.86,-1.48 c 1.44,-2.41 2.89,-4.81 4.36,-7.19 l 1.07,-1.75 c 1.44,-2.31 2.89,-4.62 4.36,-6.9 l 1.24,-1.94 c 1.45,-2.24 2.93,-4.48 4.41,-6.7 l 0.44,-0.66 c -42.82,-11.49 -85.31,-26.1 -126.36,-43.45 -115.9,-49.02 -220,-119.2 -309.39,-208.59 -38,-38.01 -72.94,-79.17 -103.9,-122.41 -21.9,40.06 -39.55,82.38 -52.6,126.13 v 19.62 c 43.74,9.31 86.83,22.76 128.17,40.25 84.56,35.77 160.51,86.96 225.7,152.16 60.36,60.36 108.82,130.13 144.07,207.37 6.7,-1.5 13.38,-3.07 20.04,-4.71 z m -676.01,-727.8 c -6.31,14.9 -13.13,29.96 -20.27,44.75 -23.48,48.57 -51.16,95.4 -82.27,139.22 -29.2,41.11 -62.2,80.57 -98,117.19 l -2.11,2.17 -2.26,2.31 c -1.22,1.25 -2.44,2.5 -3.68,3.75 -19.65,19.66 -41.19,39.27 -63.96,58.35 1.39,2.01 2.77,4.02 4.18,6.02 l 1.77,-0.78 c 81.87,-34.63 168.66,-53.33 257.97,-55.58 35.49,-0.93 71.41,0.83 106.39,5.13 7.29,-28.19 16.42,-56.22 27.15,-83.33 14.02,-35.38 31.05,-69.85 50.59,-102.51 v -2.41 c -26.48,-42.63 -49.89,-87.79 -69.55,-134.28 -22.56,-53.32 -40.36,-108.77 -52.97,-165 -12.63,56.23 -30.43,111.69 -52.98,165 z m -302.89,320.87 c 4.27,-3.63 8.38,-7.17 12.32,-10.64 -6.13,0.45 -12.22,0.61 -18.27,0.6 1.97,3.35 3.94,6.71 5.95,10.04 z m -126.87,-497.74 c 5.06,3.36 10.03,7.02 14.75,11.14 34.95,-9.27 69.53,-21.11 102.8,-35.18 13.86,-5.87 27.79,-12.25 41.48,-19.01 -51.08,-21.95 -99.62,-50.16 -144.56,-83.79 -7.76,41.36 -12.65,83.7 -14.47,126.84 z m 99.98,232.32 -2.06,1.07 -1.1,-2.05 c -0.16,-0.28 -15.18,-28.35 -24.06,-65.25 -11.14,-46.23 -7.97,-86.58 9.13,-117.23 -12.79,4.32 -25.68,8.34 -38.42,11.97 -7.36,7.73 -22.09,21.67 -42.46,34.22 4.4,69.64 16.82,137.14 36.36,201.58 64.7,-3.3 147.37,13.32 184.78,107.51 28.36,-32.17 54.59,-66.51 78.02,-102.1 22.1,-33.58 42.19,-69.02 59.71,-105.34 6.6,-13.7 12.91,-27.64 18.75,-41.46 38.6,-91.28 61.83,-187.16 69.37,-285.89 v -68.76 c -14.24,16.65 -29.17,32.91 -44.65,48.39 -63.71,63.71 -136.51,116.22 -216.41,156.12 20.81,46.12 50.96,155.87 -86.96,227.22 z M 10335.7,2953.7 c -18.8,-4.5 -37.5,-12.54 -55.7,-24.3 -80,0.93 -160,-9.71 -237.1,-31.56 l -1,5.17 c 0.9,16.32 -2.7,37.62 -20.2,59.07 -40.26,49.35 -134.65,76.95 -280.52,82.04 l -3.58,0.13 1.3,-3.35 c 0.16,-0.44 17.47,-44.35 53.6,-87.55 31.85,-38.08 84.93,-83.04 159.88,-86.91 -35.63,-14.74 -70.34,-32.01 -103.32,-51.43 -65.53,-38.58 -125.58,-86.09 -178.49,-141.21 -35.12,-11.91 -84.89,-35.81 -125.02,-82.38 -6.42,7.83 -13.04,15.57 -19.72,23.04 -12.28,13.73 -25.2,27.08 -38.4,39.68 -9.68,24.16 -21.93,46.89 -36.44,67.6 -46.31,66.07 -136.7,139.93 -304.17,116.67 l -2.9,-0.4 1,-2.76 c 0.73,-2 75.9,-200.03 306.93,-223.93 20.65,-19.95 40.01,-41.42 57.72,-63.86 v -10.49 c -23.66,-47.22 -35.27,-103.87 -34.25,-168.74 l 0.05,-2.94 2.86,0.68 c 0.53,0.12 52.69,12.93 109.4,54.98 14.3,-30.69 26.11,-62.79 35.51,-95.56 v -15.68 c -151.5,-31.93 -290.45,-114.1 -391.86,-232.02 -9.5,-11.06 -18.74,-22.64 -27.7,-34.46 l -2.15,35.49 c 0.03,2.12 0.09,4.24 0.12,6.36 l 0.04,2.07 c 0.05,3.72 0.07,7.44 0.07,11.17 0,112.19 -21.97,221.04 -65.32,323.53 -17.65,41.73 -38.83,82.23 -62.96,120.38 0.35,2.26 0.43,4.53 0.21,6.76 -0.31,3.37 -0.54,6.76 -0.82,10.14 v 152.29 c 7.94,96.95 31,191.13 68.95,280.86 13.73,32.47 29.49,64.39 46.83,95.01 l 2.91,-1.03 c 24.91,-40.89 97.22,-85.38 295.74,-81.47 l 3.58,0.07 -1.48,3.27 c -0.83,1.84 -84.31,181.83 -248.57,160.86 29.14,40.65 61.98,79.34 97.71,115.05 84.29,84.3 182.46,150.49 291.75,196.71 32.34,13.68 65.77,25.6 99.42,35.44 -46.26,-130.21 48.29,-216.13 109.29,-255.96 l 1.97,-1.29 1.29,1.97 c 1.17,1.77 113.98,176.46 -15.84,277.91 52.75,9.32 106.93,14.04 161.12,14.04 13.16,0 26.76,-0.3 40.36,-0.88 171.9,-147.78 287,-359.72 307.9,-598.28 z m -73.5,-441.17 c -25.5,3.59 -51.2,5.5 -76.7,5.5 -101.4,0 -199.7,-27.91 -284.89,-80.8 20.63,44.91 32.02,114.55 -18.88,202.51 l -1.48,2.53 -2.16,-1.96 c -1.15,-1.05 -113.53,-105.73 -61.74,-266.7 v -0.95 c -5.24,-4.88 -9.66,-9.13 -13.79,-13.27 -41.73,-41.72 -76.03,-89.25 -102.05,-141.39 l -0.05,0.17 c -8.84,83.81 -31.92,164.08 -68.58,238.81 v 2.88 c 49.96,51.74 82.59,116.93 96.98,193.89 44.79,43.66 94.7,81.82 148.37,113.42 50.71,29.86 105.06,53.92 161.57,71.53 16.3,5.1 33,9.72 49.7,13.71 55.5,13.35 112.7,20.55 169.8,21.42 18.5,-15.45 46.8,-35.57 79.6,-47.32 -6,-111.25 -32.5,-217.14 -75.7,-313.98 z m -815.59,1270.42 c -500.57,0 -907.83,-407.26 -907.83,-907.84 0,-500.57 407.26,-907.81 907.83,-907.81 500.58,0 907.79,407.24 907.79,907.81 0,500.58 -407.21,907.84 -907.79,907.84 z"
         id="path557" />
    </clipPath>
  </defs>
  <g
     inkscape:label="Layer 1"
     inkscape:groupmode="layer"
     id="layer1"
     transform="translate(-444.99642,-256.26664)">
    <path
       id="path543"
       d="m 9701.48,2019.65 c 9.98,113.27 59.47,219.62 140.34,300.49 91.81,91.81 213.88,142.37 343.68,142.37 16.8,0 33.9,-0.96 51,-2.74 -111,-210.2 -303.41,-370.99 -535.02,-440.12 z m -456.77,-14.1 c 9.28,12.46 18.88,24.57 28.66,35.94 13.87,16.11 28.86,31.89 44.58,46.88 89.55,85.46 200.57,143.54 321.16,168.03 6.56,-37.81 9.89,-76.45 9.89,-114.91 0,-46.82 -5.06,-93.57 -14.92,-139.1 -60.48,-12.99 -123.18,-19.89 -187.47,-19.89 -69.41,0 -137,8 -201.9,23.05 z m -662.01,644.79 c 58.26,47.2 123.57,83.83 194.34,108.73 51.22,-31.56 98.97,-69.34 141.93,-112.31 71.24,-71.24 127.17,-154.2 166.24,-246.55 4.66,-11.04 9.2,-22.52 13.47,-34.11 11.93,-32.35 21.73,-65.78 29.17,-99.35 12.14,-54.83 18.3,-111.5 18.3,-168.43 0,-3.49 -0.03,-6.96 -0.08,-10.44 l -0.03,-1.87 c -0.04,-2.96 -0.1,-5.9 -0.18,-8.87 l -0.04,-1.07 c -0.35,-12.58 -1.37,-25.88 -3,-40.29 -274,99.48 -485.91,329.52 -560.12,614.56 z m 498.9,1039.27 c -2.76,-10.88 -5.27,-21.59 -7.33,-31.69 l -1.54,-5.28 c -0.79,-2.74 -1.15,-5.58 -1.03,-7.94 -7.9,-42.63 -11.91,-86.41 -11.91,-130.1 0,-41.4 3.64,-82.98 10.79,-123.65 -51.7,-5.95 -104.97,-5.79 -156.4,0.49 -10.8,1.31 -21.68,2.91 -32.36,4.77 -44.52,7.71 -88.56,20.29 -131,37.33 88.01,109.43 201.22,197.78 330.78,256.07 z m 502.65,67.48 c -26.7,-55.39 -61,-106.67 -102.03,-152.44 -28.94,41.32 -128.8,152.6 -302.71,37.38 l -1.95,-1.3 1.29,-1.96 c 1.03,-1.58 101.34,-151.36 230.71,-103.75 -48.5,-39.88 -102.36,-72.48 -160.35,-97 -39.89,-16.87 -81.53,-29.78 -123.79,-38.36 -4.58,25.88 -7.5,52.16 -8.96,78.5 v 73.6 c 1.75,31.35 5.64,62.49 11.76,92.88 4.62,15.86 9.47,32 14.19,47.7 2.45,8.15 4.9,16.35 7.36,24.56 92.91,32.86 192.81,50.81 296.84,50.81 46.8,0 92.77,-3.64 137.64,-10.62 z m 139.51,-33.48 c 83.43,-27.32 161.47,-66.62 232.11,-115.87 -24.96,-0.79 -49.95,-2.4 -74.37,-5.03 -29.55,-3.19 -59.26,-7.78 -88.34,-13.67 l -3.05,4.19 c -1.38,1.9 -2.72,3.82 -4.07,5.75 l -1.62,2.33 c -1.31,1.9 -2.59,3.82 -3.87,5.72 l -1.63,2.45 c -1.25,1.91 -2.49,3.83 -3.72,5.75 l -1.62,2.54 c -1.2,1.91 -2.38,3.81 -3.55,5.74 l -1.6,2.64 c -1.15,1.9 -2.28,3.81 -3.4,5.74 l -1.58,2.73 c -1.11,1.91 -2.18,3.82 -3.24,5.74 l -6.21,11.5 c -0.98,1.9 -1.95,3.79 -2.92,5.7 l -1.52,3.07 c -0.94,1.87 -1.86,3.77 -2.77,5.67 l -1.51,3.17 c -0.89,1.88 -1.75,3.76 -2.6,5.65 l -1.48,3.28 c -0.83,1.87 -1.66,3.74 -2.47,5.62 l -1.44,3.38 c -0.78,1.87 -1.56,3.74 -2.32,5.61 l -1.4,3.48 c -0.73,1.87 -1.46,3.73 -2.17,5.6 l -1.35,3.57 c -0.69,1.86 -1.38,3.7 -2.05,5.57 l -1.31,3.68 c -0.64,1.84 -1.28,3.68 -1.9,5.52 z m -63.11,18.1 0.46,-1.82 c 0.5,-1.94 1.02,-3.88 1.54,-5.81 l 1.15,-4.2 c 0.55,-1.98 1.11,-3.97 1.69,-5.95 l 1.17,-3.96 c 0.62,-2.03 1.23,-4.07 1.87,-6.11 l 1.17,-3.69 c 0.68,-2.1 1.35,-4.21 2.06,-6.31 l 1.12,-3.3 c 0.76,-2.22 1.51,-4.42 2.31,-6.64 l 1.01,-2.77 c 0.85,-2.36 1.71,-4.72 2.6,-7.07 l 0.77,-2.01 c 1,-2.6 2,-5.19 3.25,-8.31 7.52,-18.67 16.19,-37.13 25.93,-55.14 1.46,-2.7 2.96,-5.39 4.71,-8.49 l 0.35,-0.63 c 1.43,-2.53 2.9,-5.05 4.37,-7.54 l 0.86,-1.48 c 1.44,-2.41 2.89,-4.81 4.36,-7.19 l 1.07,-1.75 c 1.44,-2.31 2.89,-4.62 4.36,-6.9 l 1.24,-1.94 c 1.45,-2.24 2.93,-4.48 4.41,-6.7 l 0.44,-0.66 c -42.82,-11.49 -85.31,-26.1 -126.36,-43.45 -115.9,-49.02 -220,-119.2 -309.39,-208.59 -38,-38.01 -72.94,-79.17 -103.9,-122.41 -21.9,40.06 -39.55,82.38 -52.6,126.13 v 19.62 c 43.74,9.31 86.83,22.76 128.17,40.25 84.56,35.77 160.51,86.96 225.7,152.16 60.36,60.36 108.82,130.13 144.07,207.37 6.7,-1.5 13.38,-3.07 20.04,-4.71 z m -676.01,-727.8 c -6.31,14.9 -13.13,29.96 -20.27,44.75 -23.48,48.57 -51.16,95.4 -82.27,139.22 -29.2,41.11 -62.2,80.57 -98,117.19 l -2.11,2.17 -2.26,2.31 c -1.22,1.25 -2.44,2.5 -3.68,3.75 -19.65,19.66 -41.19,39.27 -63.96,58.35 1.39,2.01 2.77,4.02 4.18,6.02 l 1.77,-0.78 c 81.87,-34.63 168.66,-53.33 257.97,-55.58 35.49,-0.93 71.41,0.83 106.39,5.13 7.29,-28.19 16.42,-56.22 27.15,-83.33 14.02,-35.38 31.05,-69.85 50.59,-102.51 v -2.41 c -26.48,-42.63 -49.89,-87.79 -69.55,-134.28 -22.56,-53.32 -40.36,-108.77 -52.97,-165 -12.63,56.23 -30.43,111.69 -52.98,165 z m -302.89,320.87 c 4.27,-3.63 8.38,-7.17 12.32,-10.64 -6.13,0.45 -12.22,0.61 -18.27,0.6 1.97,3.35 3.94,6.71 5.95,10.04 z m -126.87,-497.74 c 5.06,3.36 10.03,7.02 14.75,11.14 34.95,-9.27 69.53,-21.11 102.8,-35.18 13.86,-5.87 27.79,-12.25 41.48,-19.01 -51.08,-21.95 -99.62,-50.16 -144.56,-83.79 -7.76,41.36 -12.65,83.7 -14.47,126.84 z m 99.98,232.32 -2.06,1.07 -1.1,-2.05 c -0.16,-0.28 -15.18,-28.35 -24.06,-65.25 -11.14,-46.23 -7.97,-86.58 9.13,-117.23 -12.79,4.32 -25.68,8.34 -38.42,11.97 -7.36,7.73 -22.09,21.67 -42.46,34.22 4.4,69.64 16.82,137.14 36.36,201.58 64.7,-3.3 147.37,13.32 184.78,107.51 28.36,-32.17 54.59,-66.51 78.02,-102.1 22.1,-33.58 42.19,-69.02 59.71,-105.34 6.6,-13.7 12.91,-27.64 18.75,-41.46 38.6,-91.28 61.83,-187.16 69.37,-285.89 v -68.76 c -14.24,16.65 -29.17,32.91 -44.65,48.39 -63.71,63.71 -136.51,116.22 -216.41,156.12 20.81,46.12 50.96,155.87 -86.96,227.22 z M 10335.7,2953.7 c -18.8,-4.5 -37.5,-12.54 -55.7,-24.3 -80,0.93 -160,-9.71 -237.1,-31.56 l -1,5.17 c 0.9,16.32 -2.7,37.62 -20.2,59.07 -40.26,49.35 -134.65,76.95 -280.52,82.04 l -3.58,0.13 1.3,-3.35 c 0.16,-0.44 17.47,-44.35 53.6,-87.55 31.85,-38.08 84.93,-83.04 159.88,-86.91 -35.63,-14.74 -70.34,-32.01 -103.32,-51.43 -65.53,-38.58 -125.58,-86.09 -178.49,-141.21 -35.12,-11.91 -84.89,-35.81 -125.02,-82.38 -6.42,7.83 -13.04,15.57 -19.72,23.04 -12.28,13.73 -25.2,27.08 -38.4,39.68 -9.68,24.16 -21.93,46.89 -36.44,67.6 -46.31,66.07 -136.7,139.93 -304.17,116.67 l -2.9,-0.4 1,-2.76 c 0.73,-2 75.9,-200.03 306.93,-223.93 20.65,-19.95 40.01,-41.42 57.72,-63.86 v -10.49 c -23.66,-47.22 -35.27,-103.87 -34.25,-168.74 l 0.05,-2.94 2.86,0.68 c 0.53,0.12 52.69,12.93 109.4,54.98 14.3,-30.69 26.11,-62.79 35.51,-95.56 v -15.68 c -151.5,-31.93 -290.45,-114.1 -391.86,-232.02 -9.5,-11.06 -18.74,-22.64 -27.7,-34.46 l -2.15,35.49 c 0.03,2.12 0.09,4.24 0.12,6.36 l 0.04,2.07 c 0.05,3.72 0.07,7.44 0.07,11.17 0,112.19 -21.97,221.04 -65.32,323.53 -17.65,41.73 -38.83,82.23 -62.96,120.38 0.35,2.26 0.43,4.53 0.21,6.76 -0.31,3.37 -0.54,6.76 -0.82,10.14 v 152.29 c 7.94,96.95 31,191.13 68.95,280.86 13.73,32.47 29.49,64.39 46.83,95.01 l 2.91,-1.03 c 24.91,-40.89 97.22,-85.38 295.74,-81.47 l 3.58,0.07 -1.48,3.27 c -0.83,1.84 -84.31,181.83 -248.57,160.86 29.14,40.65 61.98,79.34 97.71,115.05 84.29,84.3 182.46,150.49 291.75,196.71 32.34,13.68 65.77,25.6 99.42,35.44 -46.26,-130.21 48.29,-216.13 109.29,-255.96 l 1.97,-1.29 1.29,1.97 c 1.17,1.77 113.98,176.46 -15.84,277.91 52.75,9.32 106.93,14.04 161.12,14.04 13.16,0 26.76,-0.3 40.36,-0.88 171.9,-147.78 287,-359.72 307.9,-598.28 z m -73.5,-441.17 c -25.5,3.59 -51.2,5.5 -76.7,5.5 -101.4,0 -199.7,-27.91 -284.89,-80.8 20.63,44.91 32.02,114.55 -18.88,202.51 l -1.48,2.53 -2.16,-1.96 c -1.15,-1.05 -113.53,-105.73 -61.74,-266.7 v -0.95 c -5.24,-4.88 -9.66,-9.13 -13.79,-13.27 -41.73,-41.72 -76.03,-89.25 -102.05,-141.39 l -0.05,0.17 c -8.84,83.81 -31.92,164.08 -68.58,238.81 v 2.88 c 49.96,51.74 82.59,116.93 96.98,193.89 44.79,43.66 94.7,81.82 148.37,113.42 50.71,29.86 105.06,53.92 161.57,71.53 16.3,5.1 33,9.72 49.7,13.71 55.5,13.35 112.7,20.55 169.8,21.42 18.5,-15.45 46.8,-35.57 79.6,-47.32 -6,-111.25 -32.5,-217.14 -75.7,-313.98 z m -815.59,1270.42 c -500.57,0 -907.83,-407.26 -907.83,-907.84 0,-500.57 407.26,-907.81 907.83,-907.81 500.58,0 907.79,407.24 907.79,907.81 0,500.58 -407.21,907.84 -907.79,907.84"
       style="fill:url(#linearGradient557);fill-opacity:1;fill-rule:nonzero;stroke:none"
       transform="matrix(0.13333333,0,0,-0.13333333,-693.50755,760.65995)"
       clip-path="url(#clipPath557)" />
  </g>
</svg>
